# xmcd CD database file
#
# Track frame offsets:
#	150
#	13722
#	25179
#	37801
#	49519
#	63419
#	76770
#	87728
#	100024
#	114258
#	125757
#	137001
#	147211
#	161072
#	173059
#	183612
#	198256
#	209550
#	219752
#	233333
#	247009
#	258372
#	270926
#	281463
#	295712
#	306637
#	319991
#	334048
#
# Disc length: 4629 seconds
#
# Revision: 0
# Processed by: cddbd v1.5.2PL0 Copyright (c) Steve Scherf et al.
# Submitted via: CDex 1.51
#
DISCID=8c12131c
DTITLE=Lefty Frizzel - If You've Got The Money
DYEAR=2005
DGENRE=Country
TTITLE0=If You've Got The Money, I've Got The Time
TTITLE1=Look What Thoughts Will Do
TTITLE2=I Love You A Thousand Ways
TTITLE3=Shine, Shave, Shower, It's Saturday
TTITLE4=I Want To Be With You Always
TTITLE5=Travellin' Blues
TTITLE6=How Long Will It Take To Stop Loving You?
TTITLE7=My Baby's Just Like Money
TTITLE8=Always Late With Your Kisses
TTITLE9=Blue Yodel No.2
TTITLE10=You Want Everything But Me
TTITLE11=The Brakeman's Blues
TTITLE12=Mom And Dad's Waltz
TTITLE13=My Rough And Rowdy Ways
TTITLE14=Give Me More, More, More Of Your Kisses
TTITLE15=Blue Yodel, No.6
TTITLE16=I'm An Old, Old Man Tryin' To Live While I Can
TTITLE17=Bring Your Sweet Self Back To Me
TTITLE18=Don't Stay Away Till Love Grows Cold
TTITLE19=California Blues (Blue Yodel No.4)
TTITLE20=Forever And Always
TTITLE21=Before You Go Make Sure You Know
TTITLE22=When It Comes To Measuring Love
TTITLE23=Never No More Blues
TTITLE24=Then I'll Come Back To You
TTITLE25=I'm Lonely And Blue
TTITLE26=Run 'Em Off
TTITLE27=Sleep, Baby, Sleep
EXTD=YEAR: 2005
EXTT0=
EXTT1=
EXTT2=
EXTT3=
EXTT4=
EXTT5=
EXTT6=
EXTT7=
EXTT8=
EXTT9=
EXTT10=
EXTT11=
EXTT12=
EXTT13=
EXTT14=
EXTT15=
EXTT16=
EXTT17=
EXTT18=
EXTT19=
EXTT20=
EXTT21=
EXTT22=
EXTT23=
EXTT24=
EXTT25=
EXTT26=
EXTT27=
PLAYORDER=
